<svg width="666" height="624" xmlns="http://www.w3.org/2000/svg" xmlns:xlink="http://www.w3.org/1999/xlink" xml:space="preserve" overflow="hidden"><g transform="translate(-1874 -587)"><path d="M2408.5 904C2408.5 868.378 2437.38 839.5 2473 839.5 2508.62 839.5 2537.5 868.378 2537.5 904 2537.5 939.622 2508.62 968.5 2473 968.5 2437.38 968.5 2408.5 939.622 2408.5 904Z" stroke="#4F46E5" stroke-width="4.58333" stroke-miterlimit="8" fill="#4F46E5" fill-rule="evenodd"/><path d="M2142.5 1143.5C2142.5 1107.6 2171.6 1078.5 2207.5 1078.5 2243.4 1078.5 2272.5 1107.6 2272.5 1143.5 2272.5 1179.4 2243.4 1208.5 2207.5 1208.5 2171.6 1208.5 2142.5 1179.4 2142.5 1143.5Z" stroke="#4F46E5" stroke-width="4.58333" stroke-miterlimit="8" fill="#4F46E5" fill-rule="evenodd"/><path d="M1876.5 904C1876.5 868.378 1905.6 839.5 1941.5 839.5 1977.4 839.5 2006.5 868.378 2006.5 904 2006.5 939.622 1977.4 968.5 1941.5 968.5 1905.6 968.5 1876.5 939.622 1876.5 904Z" stroke="#4F46E5" stroke-width="4.58333" stroke-miterlimit="8" fill="#4F46E5" fill-rule="evenodd"/><path d="M2137.5 654.5C2137.5 618.602 2166.6 589.5 2202.5 589.5 2238.4 589.5 2267.5 618.602 2267.5 654.5 2267.5 690.398 2238.4 719.5 2202.5 719.5 2166.6 719.5 2137.5 690.398 2137.5 654.5Z" stroke="#AFABAB" stroke-width="4.58333" stroke-miterlimit="8" fill="#AFABAB" fill-rule="evenodd"/><path d="M1884.5 768C1884.5 741.214 1906.21 719.5 1933 719.5 1959.79 719.5 1981.5 741.214 1981.5 768 1981.5 794.786 1959.79 816.5 1933 816.5 1906.21 816.5 1884.5 794.786 1884.5 768Z" stroke="#4F46E5" stroke-width="4.58333" stroke-miterlimit="8" fill="#4F46E5" fill-rule="evenodd"/><path d="M1884.5 1039.5C1884.5 1012.44 1906.21 990.5 1933 990.5 1959.79 990.5 1981.5 1012.44 1981.5 1039.5 1981.5 1066.56 1959.79 1088.5 1933 1088.5 1906.21 1088.5 1884.5 1066.56 1884.5 1039.5Z" stroke="#4F46E5" stroke-width="4.58333" stroke-miterlimit="8" fill="#4F46E5" fill-rule="evenodd"/><path d="M2418.5 768C2418.5 741.214 2440.21 719.5 2467 719.5 2493.79 719.5 2515.5 741.214 2515.5 768 2515.5 794.786 2493.79 816.5 2467 816.5 2440.21 816.5 2418.5 794.786 2418.5 768Z" stroke="#4F46E5" stroke-width="4.58333" stroke-miterlimit="8" fill="#4F46E5" fill-rule="evenodd"/><path d="M2418.5 1039.5C2418.5 1012.44 2440.21 990.5 2467 990.5 2493.79 990.5 2515.5 1012.44 2515.5 1039.5 2515.5 1066.56 2493.79 1088.5 2467 1088.5 2440.21 1088.5 2418.5 1066.56 2418.5 1039.5Z" stroke="#4F46E5" stroke-width="4.58333" stroke-miterlimit="8" fill="#4F46E5" fill-rule="evenodd"/><path d="M2306.5 652.5C2306.5 625.438 2328.44 603.5 2355.5 603.5 2382.56 603.5 2404.5 625.438 2404.5 652.5 2404.5 679.562 2382.56 701.5 2355.5 701.5 2328.44 701.5 2306.5 679.562 2306.5 652.5Z" stroke="#AFABAB" stroke-width="4.58333" stroke-miterlimit="8" fill="#AFABAB" fill-rule="evenodd"/><path d="M2010.5 647.5C2010.5 620.438 2032.44 598.5 2059.5 598.5 2086.56 598.5 2108.5 620.438 2108.5 647.5 2108.5 674.562 2086.56 696.5 2059.5 696.5 2032.44 696.5 2010.5 674.562 2010.5 647.5Z" stroke="#AFABAB" stroke-width="4.58333" stroke-miterlimit="8" fill="#AFABAB" fill-rule="evenodd"/><path d="M2307.5 1155.5C2307.5 1128.44 2329.44 1106.5 2356.5 1106.5 2383.56 1106.5 2405.5 1128.44 2405.5 1155.5 2405.5 1182.56 2383.56 1204.5 2356.5 1204.5 2329.44 1204.5 2307.5 1182.56 2307.5 1155.5Z" stroke="#4F46E5" stroke-width="4.58333" stroke-miterlimit="8" fill="#4F46E5" fill-rule="evenodd"/><path d="M2013.5 1151C2013.5 1124.21 2035.21 1102.5 2062 1102.5 2088.79 1102.5 2110.5 1124.21 2110.5 1151 2110.5 1177.79 2088.79 1199.5 2062 1199.5 2035.21 1199.5 2013.5 1177.79 2013.5 1151Z" stroke="#AFABAB" stroke-width="4.58333" stroke-miterlimit="8" fill="#AFABAB" fill-rule="evenodd"/><path d="M2438.5 663.5C2438.5 649.141 2450.14 637.5 2464.5 637.5 2478.86 637.5 2490.5 649.141 2490.5 663.5 2490.5 677.859 2478.86 689.5 2464.5 689.5 2450.14 689.5 2438.5 677.859 2438.5 663.5Z" stroke="#4F46E5" stroke-width="4.58333" stroke-miterlimit="8" fill="#4F46E5" fill-rule="evenodd"/><path d="M2438.5 1149.5C2438.5 1135.14 2450.14 1123.5 2464.5 1123.5 2478.86 1123.5 2490.5 1135.14 2490.5 1149.5 2490.5 1163.86 2478.86 1175.5 2464.5 1175.5 2450.14 1175.5 2438.5 1163.86 2438.5 1149.5Z" stroke="#AFABAB" stroke-width="4.58333" stroke-miterlimit="8" fill="#AFABAB" fill-rule="evenodd"/><path d="M1914.5 1140.5C1914.5 1126.14 1926.14 1114.5 1940.5 1114.5 1954.86 1114.5 1966.5 1126.14 1966.5 1140.5 1966.5 1154.86 1954.86 1166.5 1940.5 1166.5 1926.14 1166.5 1914.5 1154.86 1914.5 1140.5Z" stroke="#4F46E5" stroke-width="4.58333" stroke-miterlimit="8" fill="#4F46E5" fill-rule="evenodd"/><path d="M1910.5 660.5C1910.5 646.141 1922.14 634.5 1936.5 634.5 1950.86 634.5 1962.5 646.141 1962.5 660.5 1962.5 674.859 1950.86 686.5 1936.5 686.5 1922.14 686.5 1910.5 674.859 1910.5 660.5Z" stroke="#4F46E5" stroke-width="4.58333" stroke-miterlimit="8" fill="#4F46E5" fill-rule="evenodd"/><path d="M2035.5 908C2035.5 881.214 2057.21 859.5 2084 859.5 2110.79 859.5 2132.5 881.214 2132.5 908 2132.5 934.786 2110.79 956.5 2084 956.5 2057.21 956.5 2035.5 934.786 2035.5 908Z" stroke="#AFABAB" stroke-width="4.58333" stroke-miterlimit="8" fill="#AFABAB" fill-rule="evenodd"/><path d="M2275.5 907.5C2275.5 880.438 2297.44 858.5 2324.5 858.5 2351.56 858.5 2373.5 880.438 2373.5 907.5 2373.5 934.562 2351.56 956.5 2324.5 956.5 2297.44 956.5 2275.5 934.562 2275.5 907.5Z" stroke="#4F46E5" stroke-width="4.58333" stroke-miterlimit="8" fill="#4F46E5" fill-rule="evenodd"/><path d="M2155.5 807C2155.5 780.214 2177.44 758.5 2204.5 758.5 2231.56 758.5 2253.5 780.214 2253.5 807 2253.5 833.786 2231.56 855.5 2204.5 855.5 2177.44 855.5 2155.5 833.786 2155.5 807Z" stroke="#4F46E5" stroke-width="4.58333" stroke-miterlimit="8" fill="#4F46E5" fill-rule="evenodd"/><path d="M2156.5 1008.5C2156.5 981.438 2178.21 959.5 2205 959.5 2231.79 959.5 2253.5 981.438 2253.5 1008.5 2253.5 1035.56 2231.79 1057.5 2205 1057.5 2178.21 1057.5 2156.5 1035.56 2156.5 1008.5Z" stroke="#4F46E5" stroke-width="4.58333" stroke-miterlimit="8" fill="#4F46E5" fill-rule="evenodd"/><path d="M2040.5 1034.5C2040.5 1020.14 2052.14 1008.5 2066.5 1008.5 2080.86 1008.5 2092.5 1020.14 2092.5 1034.5 2092.5 1048.86 2080.86 1060.5 2066.5 1060.5 2052.14 1060.5 2040.5 1048.86 2040.5 1034.5Z" stroke="#AFABAB" stroke-width="4.58333" stroke-miterlimit="8" fill="#AFABAB" fill-rule="evenodd"/><path d="M2044.5 786.5C2044.5 772.141 2056.14 760.5 2070.5 760.5 2084.86 760.5 2096.5 772.141 2096.5 786.5 2096.5 800.859 2084.86 812.5 2070.5 812.5 2056.14 812.5 2044.5 800.859 2044.5 786.5Z" stroke="#AFABAB" stroke-width="4.58333" stroke-miterlimit="8" fill="#AFABAB" fill-rule="evenodd"/><path d="M2178.5 906.5C2178.5 892.14 2190.14 880.5 2204.5 880.5 2218.86 880.5 2230.5 892.14 2230.5 906.5 2230.5 920.859 2218.86 932.5 2204.5 932.5 2190.14 932.5 2178.5 920.859 2178.5 906.5Z" stroke="#AFABAB" stroke-width="4.58333" stroke-miterlimit="8" fill="#AFABAB" fill-rule="evenodd"/><path d="M2316.5 1035.5C2316.5 1021.14 2328.14 1009.5 2342.5 1009.5 2356.86 1009.5 2368.5 1021.14 2368.5 1035.5 2368.5 1049.86 2356.86 1061.5 2342.5 1061.5 2328.14 1061.5 2316.5 1049.86 2316.5 1035.5Z" stroke="#AFABAB" stroke-width="4.58333" stroke-miterlimit="8" fill="#AFABAB" fill-rule="evenodd"/><path d="M2316.5 783.5C2316.5 769.141 2328.14 757.5 2342.5 757.5 2356.86 757.5 2368.5 769.141 2368.5 783.5 2368.5 797.859 2356.86 809.5 2342.5 809.5 2328.14 809.5 2316.5 797.859 2316.5 783.5Z" stroke="#AFABAB" stroke-width="4.58333" stroke-miterlimit="8" fill="#AFABAB" fill-rule="evenodd"/></g></svg>