<svg width="18" height="18" viewBox="0 0 18 18" fill="none" xmlns="http://www.w3.org/2000/svg">
<path d="M15.75 2.9812H14.2875V2.36245C14.2875 2.02495 14.0063 1.71558 13.6406 1.71558C13.275 1.71558 12.9938 1.99683 12.9938 2.36245V2.9812H4.97815V2.36245C4.97815 2.02495 4.6969 1.71558 4.33127 1.71558C3.96565 1.71558 3.6844 1.99683 3.6844 2.36245V2.9812H2.25002C1.29377 2.9812 0.478149 3.7687 0.478149 4.75308V14.5406C0.478149 15.4968 1.26565 16.3125 2.25002 16.3125H15.75C16.7063 16.3125 17.5219 15.525 17.5219 14.5406V4.72495C17.5219 3.7687 16.7063 2.9812 15.75 2.9812ZM1.7719 8.21245H4.16252V10.9968H1.7719V8.21245ZM5.42815 8.21245H8.38127V10.9968H5.42815V8.21245ZM8.38127 12.2625V15.0187H5.42815V12.2625H8.38127ZM9.6469 12.2625H12.6V15.0187H9.6469V12.2625ZM9.6469 10.9968V8.21245H12.6V10.9968H9.6469ZM13.8375 8.21245H16.2281V10.9968H13.8375V8.21245ZM2.25002 4.24683H3.71252V4.83745C3.71252 5.17495 3.99377 5.48433 4.3594 5.48433C4.72502 5.48433 5.00627 5.20308 5.00627 4.83745V4.24683H13.05V4.83745C13.05 5.17495 13.3313 5.48433 13.6969 5.48433C14.0625 5.48433 14.3438 5.20308 14.3438 4.83745V4.24683H15.75C16.0313 4.24683 16.2563 4.47183 16.2563 4.75308V6.94683H1.7719V4.75308C1.7719 4.47183 1.96877 4.24683 2.25002 4.24683ZM1.7719 14.5125V12.2343H4.16252V14.9906H2.25002C1.96877 15.0187 1.7719 14.7937 1.7719 14.5125ZM15.75 15.0187H13.8375V12.2625H16.2281V14.5406C16.2563 14.7937 16.0313 15.0187 15.75 15.0187Z" fill="#DEE4EE"/>
</svg>
