<?xml version="1.0" encoding="utf-8"?>
<!-- Svg Vector Icons : http://www.onlinewebfonts.com/icon -->
<!DOCTYPE svg PUBLIC "-//W3C//DTD SVG 1.1//EN" "http://www.w3.org/Graphics/SVG/1.1/DTD/svg11.dtd">
<svg version="1.1" xmlns="http://www.w3.org/2000/svg" xmlns:xlink="http://www.w3.org/1999/xlink" x="0px" y="0px" viewBox="0 0 256 256" enable-background="new 0 0 256 256" xml:space="preserve">
<metadata> Svg Vector Icons : http://www.onlinewebfonts.com/icon </metadata>
<g><g><path fill="#ffffff" d="M240.1,228.9H136c-3.3,0-5.9-2.6-5.9-5.9v-48.4c7.8,2.7,25.9,8.5,43.3,11v5.9c0,1.1,0.9,2,2,2h25.6c1.1,0,2-0.9,2-2v-5.9c16.6-2.5,34.1-8.3,43.1-11.4V223C246,226.3,243.3,228.9,240.1,228.9z M202.9,175.7c0-1.1-0.9-2-2-2h-25.6c-1.1,0-2,0.9-2,2v5.9c-17.6-2.6-35.6-8.7-43.3-11.6v-24.1c0-3.3,2.6-5.9,5.9-5.9h28.9c-0.9-1.8-1.4-3.5-1.4-5.7v-2c0-7.6,6.2-13.1,13.8-13.1H199c7.6,0,13.8,5.5,13.8,13.1v2c0,2.1-0.5,3.9-1.4,5.7h28.7c3.3,0,5.9,2.6,5.9,5.9v24c-9.1,3.2-26.8,8.9-43.1,11.5V175.7L202.9,175.7z M204.9,130c0-2.2-1.8-3.9-3.9-3.9h-25.6c-2.2,0-3.9,1.8-3.9,3.9V140h33.5L204.9,130L204.9,130z M149,99.7c-1.9,1.9-3.4,9.1-5.8,11c-2.3,1.8-5,3.4-5.3,6c-0.8,7.3-4.6,12.9-8,16.5c-3.5,3.7-14.4,13.1-23.9,13.1c-5.8,0-14.5-1.8-22.1-8.4c-8.4-7.2-12.9-17.4-13.1-20.4c-0.3-5.1-6.5-8-9.5-13.3c-3.3-5.9-2.2-16.6-2.2-18.9c0-2.4,3.9-5.9,3.9-5.9V57.6c0,0,3.6-10.2,11.8-19.7c12.5-14.4,44.7-13.7,57.1-2c6.1,5.8,3.9,8.3,5.9,11.8c1.5,2.6,6,4.8,7.4,9.3c1.7,5.8-0.9,20.7,1.2,22.9c2.2,2.2,3.4,3.1,3.2,3.2C149.5,83.3,150.3,98.4,149,99.7z M102.5,152.1c8.9,0.5,20.2-5.9,20.2-5.9v70.9H75c0,0-30.8-2.9-43.3-5.9c-12.6-3-21.7-7.9-21.7-7.9s1.3-21,7.9-35.4c9.9-21.8,55.1-35.4,55.1-35.4S84.6,151.1,102.5,152.1z"/></g></g>
</svg>