<?xml version="1.0" encoding="utf-8"?>
<!-- Svg Vector Icons : http://www.onlinewebfonts.com/icon -->
<!DOCTYPE svg PUBLIC "-//W3C//DTD SVG 1.1//EN" "http://www.w3.org/Graphics/SVG/1.1/DTD/svg11.dtd">
<svg version="1.1" xmlns="http://www.w3.org/2000/svg" xmlns:xlink="http://www.w3.org/1999/xlink" x="0px" y="0px" viewBox="0 0 256 256" enable-background="new 0 0 256 256" xml:space="preserve">
<metadata> Svg Vector Icons : http://www.onlinewebfonts.com/icon </metadata>
<g><g><g><path fill="#ffffff" d="M138.7,73.7c2.1,2,2.1,5.4,0,7.5l-33,32.9c-2.1,2.1-5.5,2.1-7.5,0.1c-2.1-2.2-2.1-5.5,0-7.6l33-32.9C133.3,71.6,136.6,71.6,138.7,73.7z M154.4,170.3c2.1,2.1,5.5,2.1,7.5,0l33-33c2.1-2.1,2.1-5.5,0-7.5c-2.1-2.1-5.4-2.1-7.5,0l-33,33C152.3,164.9,152.3,168.3,154.4,170.3z M233.5,74.8v157.5H62.2v-2.5L47.1,246l-24.5-24.5l39.7-37.1V10h108.8L233.5,74.8z M174,69.5h29.4L174,39V69.5z M215.4,83h-55V28H80.2v139.5l40.3-37.7l-12.1-12.1l33.9-33.9l42.4,42.4l-33.9,33.9L138.7,148l-58.4,62.5v3.8h135.2L215.4,83L215.4,83z"/></g><g></g><g></g><g></g><g></g><g></g><g></g><g></g><g></g><g></g><g></g><g></g><g></g><g></g><g></g><g></g></g></g>
</svg>