<svg width="29" height="29" viewBox="0 0 29 29" fill="none" xmlns="http://www.w3.org/2000/svg">
<circle cx="14.2899" cy="14.2899" r="14.0797" fill="#FFFFFF" stroke="#FFFFFF" stroke-width="0.01"/>
<g clip-path="url(#clip0_7525_1024)">
<path d="M20.3421 19.2781L19.8693 18.5452C19.7747 18.4034 19.7274 18.2615 19.7274 18.096V13.1786C19.7274 11.7838 19.1364 10.4835 18.0489 9.51424C17.1741 8.73407 16.0394 8.23761 14.8337 8.14304V7.67021C14.8337 7.38652 14.5972 7.12646 14.2899 7.12646C14.0062 7.12646 13.7462 7.36288 13.7462 7.67021V8.1194C13.6989 8.1194 13.6516 8.1194 13.6043 8.14304C10.8619 8.45038 8.80512 10.649 8.80512 13.2732V18.096C8.78148 18.3324 8.7342 18.4506 8.68692 18.5216L8.23773 19.2781C8.09589 19.5145 8.09589 19.7982 8.23773 20.0346C8.37958 20.2474 8.61599 20.3892 8.87605 20.3892H13.7698V20.9093C13.7698 21.193 14.0062 21.4531 14.3135 21.4531C14.5972 21.4531 14.8573 21.2167 14.8573 20.9093V20.3892H19.7274C19.9875 20.3892 20.2239 20.2474 20.3657 20.0346C20.5076 19.7982 20.5076 19.5145 20.3421 19.2781ZM9.44344 19.3254L9.60893 19.0417C9.75078 18.8053 9.8217 18.5216 9.86898 18.1906V13.2732C9.86898 11.1928 11.5239 9.44331 13.7225 9.2069C15.0701 9.06505 16.394 9.46695 17.3633 10.318C18.2144 11.0746 18.6872 12.0911 18.6872 13.1786V18.096C18.6872 18.4506 18.7818 18.7816 18.9945 19.1126L19.1364 19.3254H9.44344Z" fill="#64748B"/>
</g>
<defs>
<clipPath id="clip0_7525_1024">
<rect width="15.1304" height="15.1304" fill="white" transform="translate(6.72461 6.72461)"/>
</clipPath>
</defs>
</svg>
